<svg xmlns="http://www.w3.org/2000/svg" width="208" height="60" viewBox="0 0 208 60" class="store-icon">

<title>google play</title>
<rect stroke-width="1" width="208" height="60" rx="8" fill="#000" stroke="#fff"
      stroke-linejoin="round"/>
<path  fill="#fff" d="M63.862 30.402c2.651 0 4.4 2.095 4.4 5.333 0 3.245-1.738 5.332-4.36 5.332-1.49 0-2.67-.666-3.287-1.828h-.05v5.174H58.42V30.51h2.076v1.738h.04c.596-1.12 1.867-1.846 3.326-1.846zm11.498 0c2.652 0 4.398 2.095 4.398 5.333 0 3.245-1.736 5.332-4.359 5.332-1.488 0-2.67-.666-3.286-1.828h-.05v5.174h-2.145V30.51h2.076v1.738h.04c.596-1.12 1.866-1.846 3.326-1.846zm15.395-4.012c3.027 0 5.103 1.698 5.172 4.17h-2.164c-.13-1.43-1.312-2.293-3.038-2.293-1.729 0-2.91.873-2.91 2.144 0 1.013.754 1.61 2.602 2.066l1.578.387c2.94.696 4.162 1.876 4.162 3.973 0 2.68-2.136 4.359-5.532 4.359-3.177 0-5.323-1.64-5.462-4.231h2.196c.158 1.421 1.54 2.353 3.424 2.353 1.809 0 3.109-.932 3.109-2.214 0-1.112-.785-1.778-2.641-2.234l-1.858-.447c-2.63-.636-3.853-1.866-3.853-3.863 0-2.472 2.156-4.17 5.215-4.17zm35.485 3.992c2.89 0 4.708 1.986 4.708 5.153v.735h-7.38v.13c0 1.787 1.124 2.958 2.812 2.958 1.19 0 2.125-.566 2.412-1.47h2.036c-.289 1.898-2.135 3.198-4.498 3.198-3.04 0-4.926-2.035-4.926-5.302 0-3.277 1.897-5.402 4.836-5.402zm-17.364 0c3.029 0 4.956 2.065 4.956 5.353 0 3.295-1.917 5.351-4.956 5.351-3.038 0-4.955-2.056-4.955-5.351 0-3.288 1.936-5.353 4.955-5.353zm-8.092-2.344v2.472h1.987v1.698h-1.987v5.76c0 .895.398 1.311 1.271 1.311.218 0 .567-.03.705-.05v1.689c-.237.06-.714.099-1.19.099-2.115 0-2.94-.795-2.94-2.82v-5.989h-1.52V30.51h1.519v-2.472h2.154zm-48.868-1.41l5.173 14.329h-2.353l-1.31-3.872h-5.462l-1.312 3.872H44.34l5.174-14.329h2.403zm68.29 3.774c.309 0 .566.04.736.08v2.005c-.17-.07-.547-.13-.964-.13-1.38 0-2.234.935-2.234 2.404v6.196H115.6V30.51h2.046v1.778h.05c.327-1.181 1.28-1.886 2.512-1.886zm-89.188-8.509l.29.02c.81.023 3.118.32 4.607 2.489-.122.072-2.749 1.617-2.72 4.791.032 3.806 3.328 5.062 3.368 5.076-.02.088-.516 1.815-1.751 3.568-1.033 1.544-2.115 3.053-3.832 3.08-1.669.039-2.23-.982-4.144-.982-1.931 0-2.53.955-4.13 1.02-1.636.062-2.885-1.647-3.955-3.177-2.137-3.122-3.802-8.8-1.57-12.663 1.08-1.895 3.054-3.116 5.16-3.148 1.638-.035 3.158 1.105 4.164 1.105.889 0 2.5-1.104 4.225-1.176l.288-.003zm77.858 10.255c-1.738 0-2.77 1.341-2.77 3.587 0 2.263 1.032 3.583 2.77 3.583 1.737 0 2.77-1.32 2.77-3.583 0-2.255-1.033-3.587-2.77-3.587zm-45.58.081c-1.638 0-2.74 1.42-2.74 3.506 0 2.104 1.102 3.514 2.74 3.514 1.668 0 2.762-1.38 2.762-3.514 0-2.115-1.094-3.506-2.761-3.506zm11.499 0c-1.639 0-2.74 1.42-2.74 3.506 0 2.104 1.101 3.514 2.74 3.514 1.667 0 2.76-1.38 2.76-3.514 0-2.115-1.093-3.506-2.76-3.506zm-24.07-3.217h-.06l-2.135 6.285h4.329l-2.135-6.285zm75.515 3.108c-1.48 0-2.551 1.073-2.66 2.651h5.222c-.05-1.6-1.072-2.651-2.562-2.651zM55.16 17.432c1.513 0 2.45 1.021 2.45 2.696 0 1.684-.932 2.7-2.45 2.7-1.521 0-2.451-1.016-2.451-2.7 0-1.675.934-2.696 2.452-2.696zm22.543 0c1.513 0 2.449 1.021 2.449 2.696 0 1.684-.931 2.7-2.449 2.7-1.521 0-2.451-1.016-2.451-2.7 0-1.675.934-2.696 2.451-2.696zm20.784 0c1.512 0 2.448 1.021 2.448 2.696 0 1.684-.931 2.7-2.448 2.7-1.521 0-2.452-1.016-2.452-2.7 0-1.675.935-2.696 2.452-2.696zm24.75 0c1.446 0 2.319.988 2.319 2.62v.357h-3.67v.058c.035.91.565 1.488 1.384 1.488.622 0 1.047-.225 1.237-.63h.986c-.233.932-1.063 1.504-2.25 1.504-1.49 0-2.4-1.021-2.4-2.683 0-1.66.93-2.714 2.395-2.714zm-31.445-1.928v7.224h-.982v-.821h-.082c-.31.569-.916.907-1.631.907-1.322 0-2.157-1.04-2.157-2.686 0-1.642.845-2.682 2.157-2.682.711 0 1.311.34 1.593.912h.077v-2.854h1.025zm-8.236 1.928c1.302 0 2.036.649 2.036 1.746v3.55h-.986v-.73h-.082c-.31.52-.877.816-1.56.816-1.002 0-1.732-.606-1.732-1.556 0-.934.696-1.474 1.933-1.55l1.406-.081v-.449c0-.548-.362-.858-1.063-.858-.572 0-.969.21-1.083.577h-.992c.105-.892.944-1.465 2.123-1.465zm28.961-1.193v1.317h1.126v.864h-1.126v2.671c0 .545.225.784.735.784.158 0 .248-.01.391-.025v.854a3.302 3.302 0 0 1-.558.053c-1.14 0-1.593-.401-1.593-1.403V18.42h-.825v-.864h.825v-1.317h1.025zm-7.592 1.193c1.16 0 1.799.696 1.799 1.933v3.363h-1.026v-3.106c0-.835-.362-1.25-1.121-1.25s-1.24.506-1.24 1.316v3.04h-1.025v-5.195h.986v.825h.076c.253-.577.769-.926 1.551-.926zm-56.664-1.589c2.042 0 3.24 1.255 3.24 3.422 0 2.199-1.189 3.463-3.24 3.463h-2.487v-6.885h2.487zm25.566-.339v7.224H72.8v-7.224h1.026zm-4.459 1.928c1.16 0 1.799.696 1.799 1.933v3.363H70.14v-3.106c0-.835-.362-1.25-1.121-1.25-.758 0-1.24.506-1.24 1.316v3.04h-1.025v-5.195h.986v.825h.076c.253-.577.769-.926 1.551-.926zm-9.978.1l.93 3.965h.077l1.068-3.964h.983l1.069 3.964h.08l.927-3.964h1.026l-1.427 5.195h-1.064l-1.073-3.827h-.082l-1.069 3.827h-1.053l-1.433-5.195h1.04zm56.67-2.028v2.863h.082c.251-.582.8-.93 1.584-.93 1.106 0 1.79.701 1.79 1.937v3.354h-1.028v-3.101c0-.83-.386-1.25-1.11-1.25-.84 0-1.31.53-1.31 1.317v3.034h-1.024v-7.224h1.017zM84.572 20.38l-1.268.081c-.715.049-1.04.292-1.04.75 0 .467.405.74.963.74.773 0 1.345-.492 1.345-1.136v-.435zm13.916-2.036c-.892 0-1.393.658-1.393 1.784 0 1.135.5 1.79 1.393 1.79.887 0 1.393-.66 1.393-1.79 0-1.126-.506-1.784-1.393-1.784zm-43.326 0c-.892 0-1.393.658-1.393 1.784 0 1.135.5 1.79 1.393 1.79.887 0 1.394-.66 1.394-1.79 0-1.126-.507-1.784-1.394-1.784zm22.542 0c-.891 0-1.392.658-1.392 1.784 0 1.135.5 1.79 1.392 1.79.888 0 1.394-.66 1.394-1.79 0-1.126-.506-1.784-1.394-1.784zm11.684.023c-.863 0-1.388.668-1.388 1.76 0 1.103.52 1.766 1.388 1.766.865 0 1.399-.673 1.399-1.76 0-1.083-.54-1.766-1.399-1.766zm-41.245-1.55h-1.298v4.938h1.298c1.44 0 2.27-.897 2.27-2.477 0-1.555-.844-2.462-2.27-2.462zm-16.813-.986c.163 1.487-.426 2.951-1.286 4.028-.898 1.06-2.336 1.87-3.735 1.765-.183-1.43.526-2.95 1.32-3.878.897-1.053 2.455-1.86 3.701-1.915zm91.903 2.474c-.758 0-1.288.535-1.345 1.346h2.625c-.025-.816-.52-1.346-1.28-1.346z"></path>
  
</svg>