<svg xmlns="http://www.w3.org/2000/svg" width="208" height="60" viewBox="0 0 208 60" class="store-icon">

<title>google play</title>
<rect stroke-width="1" width="208" height="60" rx="8" fill="#000" stroke="#fff"
      stroke-linejoin="round"/>
<path  fill="#fff" d="M87.097 30.95c1.016 0 1.835.42 2.304.911l.095.107h.07v-.743h1.899v8.183c0 3.366-1.985 4.746-4.333 4.746-2.125 0-3.435-1.372-3.977-2.552l-.061-.14 1.743-.726c.31.743 1.07 1.623 2.295 1.623 1.442 0 2.359-.859 2.43-2.47l.004-.205v-.656h-.07c-.448.552-1.311 1.034-2.398 1.034-2.278 0-4.368-1.984-4.368-4.538 0-2.572 2.09-4.574 4.367-4.574zm45.062.268l2.377 5.806h.07l2.291-5.806h2.224l-5.498 12.63h-2.085l2.034-4.514-3.567-8.116h2.154zM15.85 15.74a5358.8 5358.8 0 0 0 8.124 8.264c1.753 1.782 3.507 3.565 5.27 5.342.17.171.185.262.004.442-4.31 4.285-8.614 8.574-12.908 12.872-.263.263-.447.236-.699.042-.46-.355-.635-.828-.635-1.392 0-2.38-.004-4.76-.006-7.14v-5.047h.007l-.001-12.054c-.001-.493.095-.944.444-1.317.135-.143.234-.183.4-.012zm14.494 14.713a228.476 228.476 0 0 0 3.07 3.129c.182.182.197.256-.049.39-5.128 2.808-10.25 5.622-15.375 8.436-.085.046-.163.123-.207.151 3.995-4.038 7.991-8.072 11.977-12.119.247-.25.362-.217.584.013zm36.995.497c2.52 0 4.574 1.915 4.574 4.555 0 2.625-2.054 4.557-4.574 4.557s-4.574-1.932-4.574-4.557c0-2.64 2.054-4.555 4.574-4.555zm9.979 0c2.52 0 4.575 1.915 4.575 4.555 0 2.625-2.054 4.557-4.575 4.557-2.52 0-4.574-1.932-4.574-4.557 0-2.64 2.055-4.555 4.574-4.555zm-21.85-5.041c2.05 0 3.54.763 4.675 1.787l.176.164-1.364 1.363c-.828-.776-1.95-1.38-3.486-1.38-2.848 0-5.074 2.295-5.074 5.143s2.226 5.144 5.074 5.144c1.847 0 2.9-.743 3.573-1.416.507-.506.853-1.215 1.014-2.167l.04-.266h-4.627v-1.933h6.508c.068.344.103.758.103 1.207 0 1.451-.397 3.245-1.674 4.523-1.243 1.295-2.83 1.984-4.937 1.984-3.901 0-7.18-3.175-7.18-7.075 0-3.902 3.279-7.078 7.18-7.078zm44.644 5.04c2.281 0 3.438 1.75 3.858 2.788l.043.112.207.517-6.092 2.52c.466.915 1.19 1.383 2.208 1.383.952 0 1.632-.437 2.139-1.112l.106-.148 1.553 1.035c-.5.742-1.708 2.018-3.798 2.018-2.588 0-4.521-2.001-4.521-4.557 0-2.71 1.95-4.555 4.297-4.555zm25.688-.024c2.22 0 3.955 1.245 4.062 3.484l.005.22v5.135h-1.93V38.73h-.07c-.464.707-1.205 1.31-2.55 1.31-1.758 0-3.326-1.154-3.326-2.947 0-1.964 1.948-3.016 3.86-3.016.875 0 1.603.265 1.994.468l.091.05v-.137c-.016-1.103-1.068-1.723-2.102-1.723-.688 0-1.345.207-1.74.83l-.087.151-1.774-.741c.62-1.412 2.12-2.05 3.567-2.05zm-30.953-4.532v13.394h-2.001V26.393h2.001zm18.546 0c2.215 0 4.395 1.604 4.395 4.16 0 2.48-2.053 4.063-4.2 4.154l-.195.004H110.6v5.076h-1.999V26.393h4.79zm7.495 0v13.394h-1.998V26.393h1.998zm-43.57 6.351c-1.382 0-2.572 1.122-2.572 2.761 0 1.624 1.19 2.764 2.572 2.764 1.38 0 2.57-1.14 2.57-2.764 0-1.639-1.19-2.76-2.57-2.76zm-9.979 0c-1.38 0-2.572 1.122-2.572 2.761 0 1.624 1.191 2.764 2.572 2.764s2.572-1.14 2.572-2.764c0-1.639-1.19-2.76-2.572-2.76zm19.931 0c-1.381 0-2.537 1.174-2.537 2.78 0 1.586 1.156 2.745 2.537 2.745 1.364 0 2.434-1.159 2.434-2.745 0-1.606-1.07-2.78-2.434-2.78zm38.84 2.953c-.982 0-2.119.397-2.119 1.43 0 .81.913 1.138 1.568 1.138 1.155 0 2.223-.88 2.377-2.119-.533-.258-.948-.449-1.826-.449zm-25.928-2.987c-.979 0-2.326.83-2.383 2.459v.2l4.075-1.692c-.225-.57-.898-.967-1.692-.967zm-65.05-7.233c1.53.868 3.069 1.724 4.604 2.585.475.265.844.61.865 1.173-.017.452-.23.77-.554 1.008a6.669 6.669 0 0 1-.764.466c-1.55.857-3.105 1.707-4.652 2.57-.21.115-.332.11-.505-.068a342.285 342.285 0 0 0-3.33-3.388c-.163-.163-.167-.253 0-.417a566.28 566.28 0 0 0 3.884-3.867c.152-.152.261-.169.451-.062zm78.313 2.78h-2.844v4.591h2.844c1.494 0 2.342-1.258 2.342-2.296 0-1.057-.848-2.296-2.342-2.296zM16.552 15.293c.329-.002.56.092.783.219 5.503 3.083 11.005 6.167 16.512 9.245.253.14.247.22.052.412a621.393 621.393 0 0 0-3.672 3.653c-.131.132-.212.208-.389.028-4.377-4.465-8.762-8.923-13.145-13.383-.036-.038-.067-.082-.141-.174zM80.825 15c.934 0 1.717.325 2.353.978.634.652.951 1.445.951 2.38 0 .94-.316 1.733-.947 2.382-.632.65-1.417.975-2.357.975-.94 0-1.725-.324-2.356-.975-.632-.649-.947-1.443-.947-2.382 0-.94.315-1.735.947-2.384.63-.65 1.416-.974 2.356-.974zM51.96 15c.46 0 .9.09 1.319.269.419.18.754.419 1.006.717l-.566.566c-.425-.508-1.011-.763-1.76-.763-.676 0-1.261.238-1.755.714-.494.477-.74 1.094-.74 1.854s.246 1.378.74 1.854a2.44 2.44 0 0 0 1.756.714c.718 0 1.316-.24 1.796-.718.31-.312.49-.745.537-1.302H51.96v-.773h3.115c.03.169.045.33.045.486 0 .898-.266 1.612-.799 2.146-.605.634-1.393.951-2.361.951-.928 0-1.718-.321-2.366-.965-.65-.643-.974-1.441-.974-2.393 0-.952.324-1.75.974-2.393.648-.643 1.438-.964 2.366-.964zm8.098.143v.79h-2.927v2.038h2.639v.772h-2.639v2.038h2.927v.79h-3.753v-6.428h3.753zm26.234 0l3.125 5h.036l-.036-1.238v-3.762h.827v6.429h-.863l-3.268-5.244h-.036l.036 1.24v4.004h-.826v-6.429h1.005zm-11.473 0v.79h-1.795v5.639h-.826v-5.64h-1.796v-.789h4.417zm-5.459 0v6.429h-.826v-6.429h.826zm-4.022 0v.79h-1.796v5.639h-.826v-5.64H60.92v-.789h4.419zm15.486.646c-.689 0-1.27.241-1.746.724-.475.48-.714 1.097-.714 1.845 0 .747.239 1.362.714 1.845a2.358 2.358 0 0 0 1.746.722c.688 0 1.27-.24 1.746-.722.476-.483.715-1.098.715-1.845 0-.748-.239-1.364-.715-1.845a2.36 2.36 0 0 0-1.746-.724z"/>

</svg>