<svg width="94" height="102" viewBox="0 0 94 102" fill="none" xmlns="http://www.w3.org/2000/svg">
<path d="M43.2901 100.345C67.1985 100.345 86.5802 81.0176 86.5802 57.1763C86.5802 33.335 67.1985 14.0078 43.2901 14.0078C19.3816 14.0078 0 33.335 0 57.1763C0 81.0176 19.3816 100.345 43.2901 100.345Z" fill="#4D4D4D"/>
<path d="M43.2904 96.7714C65.2197 96.7714 82.9968 79.0441 82.9968 57.1765C82.9968 35.3088 65.2197 17.5815 43.2904 17.5815C21.3612 17.5815 3.58398 35.3088 3.58398 57.1765C3.58398 79.0441 21.3612 96.7714 43.2904 96.7714Z" fill="white"/>
<path d="M43.147 62.6084C46.0761 62.6084 48.4507 60.2405 48.4507 57.3196C48.4507 54.3986 46.0761 52.0308 43.147 52.0308C40.2178 52.0308 37.8433 54.3986 37.8433 57.3196C37.8433 60.2405 40.2178 62.6084 43.147 62.6084Z" fill="#4D4D4D"/>
<path d="M44.2931 19.583H41.9995V23.8713H44.2931V19.583Z" fill="#3F3D56"/>
<path d="M44.2931 90.7681H41.9995V95.0563H44.2931V90.7681Z" fill="#3F3D56"/>
<path d="M9.604 58.4629V56.1758H5.30366V58.4629H9.604Z" fill="#3F3D56"/>
<path d="M80.9893 58.4629V56.1758H76.6889V58.4629H80.9893Z" fill="#3F3D56"/>
<path d="M41.6177 59.6156L43.5777 55.1465L68.1374 68.7104L41.6177 59.6156Z" fill="#4D4D4D"/>
<path d="M48.88 3.57324H37.6992V16.438H48.88V3.57324Z" fill="#4D4D4D"/>
<path d="M43.2897 7.14717C50.4147 7.14717 56.1907 5.54722 56.1907 3.57359C56.1907 1.59995 50.4147 0 43.2897 0C36.1647 0 30.3887 1.59995 30.3887 3.57359C30.3887 5.54722 36.1647 7.14717 43.2897 7.14717Z" fill="#4D4D4D"/>
</svg>
