<svg width="24" height="17" viewBox="0 0 24 17" fill="none" xmlns="http://www.w3.org/2000/svg">
<path d="M22.7747 3.37631C22.5154 2.4124 21.7554 1.65256 20.7916 1.39301C19.0309 0.911255 11.988 0.911255 11.988 0.911255C11.988 0.911255 4.94536 0.911255 3.18466 1.37474C2.23943 1.63402 1.46091 2.41254 1.20163 3.37631C0.738281 5.13687 0.738281 8.78804 0.738281 8.78804C0.738281 8.78804 0.738281 12.4576 1.20163 14.1998C1.46118 15.1635 2.22089 15.9234 3.1848 16.1829C4.9639 16.6648 11.9883 16.6648 11.9883 16.6648C11.9883 16.6648 19.0309 16.6648 20.7916 16.2013C21.7555 15.9419 22.5154 15.1821 22.7749 14.2183C23.2381 12.4576 23.2381 8.80658 23.2381 8.80658C23.2381 8.80658 23.2567 5.13687 22.7747 3.37631ZM9.7457 12.1611V5.41496L15.6022 8.78804L9.7457 12.1611Z" fill="#A4A4A4"/>
</svg>
